# xmcd
#
# Track frame offsets: 
#        182
#        16855
#        33272
#        51575
#        65110
#        81065
#        100820
#        120965
#        134860
#        151810
#        165310
#
# Disc length: 2482 seconds
#
# Revision: 4
# Processed by: cddbd v1.5.2PL0 Copyright (c) Steve Scherf et al.
# Submitted via: ExactAudioCopy v0.99pb4
#
DISCID=8809b00b
DTITLE=Delbert McClinton - Live From Austin
DYEAR=1989
DGENRE=Blues
TTITLE0=Maybe Someday Baby
TTITLE1=Lipstick Traces
TTITLE2=Standing On Shaky Ground
TTITLE3=Sandy Beaches
TTITLE4=Thank You Baby
TTITLE5=B Movie Box Car Blues
TTITLE6=I've Got Dreams To Remember
TTITLE7=Let Me Be Your Lover
TTITLE8=Going Back To Louisiana
TTITLE9=You Are My Sunshine
TTITLE10=Givin' It Up For Your Love
EXTD=YEAR: 1989 ID3G:   0
EXTT0=
EXTT1=
EXTT2=
EXTT3=
EXTT4=
EXTT5=
EXTT6=
EXTT7=
EXTT8=
EXTT9=
EXTT10=
PLAYORDER=
